<svg xmlns="http://www.w3.org/2000/svg" version="1.1" xmlns:xlink="http://www.w3.org/1999/xlink" xmlns:svgjs="http://svgjs.dev/svgjs" width="1500" height="1500" viewBox="0 0 1500 1500"><rect width="1500" height="1500" fill="#77d4fc"></rect><g transform="matrix(0.6666666666666666,0,0,0.6666666666666666,249.39393939393926,657.7677368816305)"><svg viewBox="0 0 396 73" data-background-color="#77d4fc" preserveAspectRatio="xMidYMid meet" height="276" width="1500" xmlns="http://www.w3.org/2000/svg" xmlns:xlink="http://www.w3.org/1999/xlink"><g id="tight-bounds" transform="matrix(1,0,0,1,0.24000000000003752,0.22787069395948834)"><svg viewBox="0 0 395.5199999999999 72.54425861208104" height="72.54425861208104" width="395.5199999999999"><g><svg viewBox="0 0 492.25716106202043 90.2872946898565" height="72.54425861208104" width="395.5199999999999"><g><rect width="4.16448061562631" height="78.39707208960041" x="81.6708987300949" y="5.9451113001280405" fill="#0080ff" opacity="1" stroke-width="0" stroke="transparent" fill-opacity="1" class="rect-qz-0" data-fill-palette-color="primary" rx="1%" id="qz-0" data-palette-color="#0080ff"></rect></g><g transform="matrix(1,0,0,1,96.73716106202045,12.478200640928073)"><svg viewBox="0 0 395.52 65.33089340800035" height="65.33089340800035" width="395.52"><g id="textblocktransform"><svg viewBox="0 0 395.52 65.33089340800035" height="65.33089340800035" width="395.52" id="textblock"><g><svg viewBox="0 0 395.52 46.17911908156374" height="46.17911908156374" width="395.52"><g transform="matrix(1,0,0,1,0,0)"><svg width="395.52" viewBox="3.03 -37.5 325.33000000000004 37.99" height="46.17911908156374" data-palette-color="#0080ff"><path d="M15.11-17.7L26.1-17.7 26.1-4.44Q25.51-3.66 24.33-2.49 23.14-1.32 21.02-0.42 18.9 0.49 15.45 0.49L15.45 0.49Q12.7 0.49 10.41-0.44 8.13-1.37 6.48-3.23 4.83-5.1 3.93-7.9 3.03-10.69 3.03-14.45L3.03-14.45 3.03-21.12Q3.03-24.85 3.78-27.66 4.54-30.47 6.04-32.32 7.54-34.18 9.78-35.11 12.01-36.04 14.99-36.04L14.99-36.04Q18.43-36.04 20.85-34.74 23.27-33.45 24.6-31.01 25.93-28.56 26.1-25.15L26.1-25.15 21.61-25.15Q21.44-27.34 20.68-28.92 19.92-30.49 18.53-31.34 17.14-32.18 14.99-32.18L14.99-32.18Q12.94-32.18 11.52-31.49 10.11-30.81 9.22-29.44 8.33-28.08 7.92-26 7.52-23.93 7.52-21.17L7.52-21.17 7.52-14.45Q7.52-11.62 8.08-9.52 8.64-7.42 9.68-6.05 10.72-4.69 12.18-4.02 13.65-3.34 15.48-3.34L15.48-3.34Q17.55-3.34 18.75-3.78 19.95-4.22 20.59-4.79 21.24-5.35 21.63-5.69L21.63-5.69 21.63-13.89 15.11-13.89 15.11-17.7ZM31.88-11.94L31.88-11.94 31.88-14.45Q31.88-17.53 32.66-19.86 33.44-22.19 34.84-23.75 36.23-25.32 38.08-26.11 39.94-26.9 42.06-26.9L42.06-26.9Q44.24-26.9 46.09-26.11 47.95-25.32 49.35-23.75 50.75-22.19 51.54-19.86 52.32-17.53 52.32-14.45L52.32-14.45 52.32-11.94Q52.32-8.86 51.54-6.53 50.75-4.2 49.36-2.64 47.97-1.07 46.12-0.29 44.26 0.49 42.11 0.49L42.11 0.49Q39.96 0.49 38.11-0.29 36.25-1.07 34.85-2.64 33.44-4.2 32.66-6.53 31.88-8.86 31.88-11.94ZM36.2-14.45L36.2-14.45 36.2-11.94Q36.2-9.77 36.64-8.13 37.08-6.49 37.89-5.4 38.69-4.3 39.77-3.75 40.84-3.2 42.11-3.2L42.11-3.2Q43.58-3.2 44.69-3.75 45.8-4.3 46.53-5.4 47.26-6.49 47.63-8.13 48-9.77 48-11.94L48-11.94 48-14.45Q48-16.63 47.56-18.25 47.12-19.87 46.31-20.98 45.51-22.09 44.42-22.64 43.33-23.19 42.06-23.19L42.06-23.19Q40.82-23.19 39.74-22.64 38.67-22.09 37.88-20.98 37.08-19.87 36.64-18.25 36.2-16.63 36.2-14.45ZM62.06-26.42L62.2-22.27 62.2 0 57.88 0 57.88-26.42 62.06-26.42ZM68.77-26.56L68.77-26.56 68.79-22.36Q68.26-22.49 67.83-22.52 67.4-22.56 66.84-22.56L66.84-22.56Q65.62-22.56 64.7-22.07 63.79-21.58 63.13-20.7 62.47-19.82 62.08-18.62 61.69-17.41 61.54-15.97L61.54-15.97 60.42-15.23Q60.42-17.63 60.8-19.73 61.18-21.83 61.98-23.45 62.79-25.07 64.05-25.99 65.3-26.9 67.06-26.9L67.06-26.9Q67.45-26.9 68.02-26.79 68.6-26.68 68.77-26.56ZM73.45-26.42L77.75-26.42 77.75 0 73.45 0 73.45-26.42ZM73.21-33.42L73.21-33.42Q73.21-34.52 73.82-35.28 74.43-36.04 75.65-36.04L75.65-36.04Q76.87-36.04 77.49-35.28 78.12-34.52 78.12-33.42L78.12-33.42Q78.12-32.37 77.49-31.63 76.87-30.88 75.65-30.88L75.65-30.88Q74.43-30.88 73.82-31.63 73.21-32.37 73.21-33.42ZM84.93-37.5L89.22-37.5 89.22 0 84.93 0 84.93-37.5ZM96.4-37.5L100.7-37.5 100.7 0 96.4 0 96.4-37.5ZM120.47-4.52L120.47-4.52 120.47-18.85Q120.47-20.41 119.99-21.36 119.52-22.31 118.58-22.75 117.64-23.19 116.22-23.19L116.22-23.19Q114.85-23.19 113.86-22.63 112.88-22.07 112.35-21.14 111.83-20.21 111.83-19.09L111.83-19.09 107.5-19.09Q107.5-20.51 108.13-21.9 108.75-23.29 109.92-24.43 111.09-25.56 112.74-26.23 114.39-26.9 116.44-26.9L116.44-26.9Q118.88-26.9 120.76-26.11 122.64-25.32 123.72-23.54 124.79-21.75 124.79-18.8L124.79-18.8 124.79-5.76Q124.79-4.44 125-2.95 125.2-1.46 125.6-0.39L125.6-0.39 125.6 0 121.13 0Q120.81-0.78 120.64-2.09 120.47-3.39 120.47-4.52ZM117.49-16.02L121.15-16.02 121.2-12.84 118.2-12.84Q116.66-12.84 115.4-12.5 114.15-12.16 113.24-11.51 112.34-10.86 111.86-9.91 111.39-8.96 111.39-7.74L111.39-7.74Q111.39-6.15 111.83-5.21 112.27-4.27 113.14-3.86 114.02-3.44 115.37-3.44L115.37-3.44Q117-3.44 118.25-4.2 119.49-4.96 120.19-6.03 120.88-7.1 120.83-8.03L120.83-8.03 121.79-6.01Q121.69-5.05 121.16-3.94 120.64-2.83 119.71-1.82 118.78-0.81 117.53-0.16 116.27 0.49 114.71 0.49L114.71 0.49Q112.41 0.49 110.69-0.39 108.97-1.27 108.02-2.98 107.07-4.69 107.07-7.2L107.07-7.2Q107.07-9.11 107.72-10.72 108.38-12.33 109.68-13.51 110.97-14.7 112.94-15.36 114.9-16.02 117.49-16.02L117.49-16.02ZM156.86 0L144.95-35.55 149.3-35.55 158.6-6.57 167.88-35.55 172.22-35.55 160.28 0 156.86 0ZM143.53 0L143.53-35.55 147.34-35.55 148-13.87 148 0 143.53 0ZM169.15-13.87L169.8-35.55 173.61-35.55 173.61 0 169.15 0 169.15-13.87ZM190.16 0.49L190.16 0.49Q187.79 0.49 185.89-0.22 183.99-0.93 182.64-2.38 181.3-3.83 180.59-6.05 179.88-8.28 179.88-11.3L179.88-11.3 179.88-14.28Q179.88-17.77 180.7-20.19 181.52-22.61 182.91-24.08 184.3-25.56 186.06-26.23 187.82-26.9 189.67-26.9L189.67-26.9Q192.17-26.9 193.92-26.1 195.68-25.29 196.78-23.71 197.88-22.12 198.4-19.8 198.93-17.48 198.93-14.45L198.93-14.45 198.93-11.94 182.42-11.94 182.42-15.63 194.61-15.63 194.61-16.24Q194.51-18.29 194.06-19.85 193.61-21.41 192.58-22.3 191.55-23.19 189.67-23.19L189.67-23.19Q188.48-23.19 187.47-22.79 186.45-22.39 185.73-21.4 185.01-20.41 184.61-18.68 184.21-16.94 184.21-14.28L184.21-14.28 184.21-11.3Q184.21-9.18 184.61-7.65 185.01-6.13 185.81-5.14 186.6-4.15 187.76-3.67 188.92-3.2 190.41-3.2L190.41-3.2Q192.58-3.2 194-4.04 195.41-4.88 196.46-6.2L196.46-6.2 198.73-3.49Q198.02-2.49 196.89-1.57 195.75-0.66 194.11-0.09 192.46 0.49 190.16 0.49ZM213.31-3.2L213.31-3.2Q214.6-3.2 215.66-3.72 216.72-4.25 217.41-5.38 218.09-6.52 218.19-8.35L218.19-8.35 222.24-8.35Q222.14-5.71 220.91-3.72 219.68-1.73 217.69-0.62 215.7 0.49 213.31 0.49L213.31 0.49Q210.74 0.49 208.85-0.34 206.96-1.17 205.72-2.75 204.49-4.32 203.88-6.58 203.27-8.84 203.27-11.72L203.27-11.72 203.27-14.7Q203.27-17.58 203.88-19.84 204.49-22.09 205.72-23.67 206.96-25.24 208.85-26.07 210.74-26.9 213.31-26.9L213.31-26.9Q215.99-26.9 217.96-25.77 219.92-24.63 221.03-22.5 222.14-20.36 222.24-17.33L222.24-17.33 218.19-17.33Q218.09-19.29 217.48-20.59 216.87-21.9 215.82-22.55 214.77-23.19 213.31-23.19L213.31-23.19Q211.6-23.19 210.49-22.6 209.37-22 208.74-20.87 208.1-19.75 207.85-18.19 207.59-16.63 207.59-14.7L207.59-14.7 207.59-11.72Q207.59-9.79 207.85-8.22 208.1-6.64 208.73-5.52 209.35-4.39 210.47-3.8 211.6-3.2 213.31-3.2ZM227.24-37.5L231.56-37.5 231.56 0 227.24 0 227.24-37.5ZM230.51-14.21L230.51-14.21 228.76-14.28Q228.73-16.99 229.38-19.3 230.03-21.61 231.23-23.32 232.44-25.02 234.13-25.96 235.81-26.9 237.86-26.9L237.86-26.9Q239.47-26.9 240.79-26.38 242.11-25.85 243.04-24.71 243.97-23.56 244.47-21.74 244.97-19.92 244.97-17.31L244.97-17.31 244.97 0 240.65 0 240.65-17.36Q240.65-19.43 240.19-20.69 239.74-21.95 238.83-22.52 237.91-23.1 236.52-23.1L236.52-23.1Q235.25-23.1 234.15-22.39 233.05-21.68 232.24-20.43 231.42-19.19 230.97-17.59 230.51-15.99 230.51-14.21ZM264.33-4.52L264.33-4.52 264.33-18.85Q264.33-20.41 263.85-21.36 263.37-22.31 262.43-22.75 261.49-23.19 260.08-23.19L260.08-23.19Q258.71-23.19 257.72-22.63 256.73-22.07 256.21-21.14 255.68-20.21 255.68-19.09L255.68-19.09 251.36-19.09Q251.36-20.51 251.98-21.9 252.61-23.29 253.78-24.43 254.95-25.56 256.6-26.23 258.25-26.9 260.3-26.9L260.3-26.9Q262.74-26.9 264.62-26.11 266.5-25.32 267.57-23.54 268.65-21.75 268.65-18.8L268.65-18.8 268.65-5.76Q268.65-4.44 268.85-2.95 269.06-1.46 269.45-0.39L269.45-0.39 269.45 0 264.98 0Q264.67-0.78 264.5-2.09 264.33-3.39 264.33-4.52ZM261.35-16.02L265.01-16.02 265.06-12.84 262.05-12.84Q260.52-12.84 259.26-12.5 258-12.16 257.1-11.51 256.2-10.86 255.72-9.91 255.24-8.96 255.24-7.74L255.24-7.74Q255.24-6.15 255.68-5.21 256.12-4.27 257-3.86 257.88-3.44 259.22-3.44L259.22-3.44Q260.86-3.44 262.1-4.2 263.35-4.96 264.04-6.03 264.74-7.1 264.69-8.03L264.69-8.03 265.64-6.01Q265.55-5.05 265.02-3.94 264.5-2.83 263.57-1.82 262.64-0.81 261.38-0.16 260.13 0.49 258.56 0.49L258.56 0.49Q256.27 0.49 254.55-0.39 252.83-1.27 251.87-2.98 250.92-4.69 250.92-7.2L250.92-7.2Q250.92-9.11 251.58-10.72 252.24-12.33 253.53-13.51 254.83-14.7 256.79-15.36 258.76-16.02 261.35-16.02L261.35-16.02ZM279.41-26.42L279.66-20.78 279.66 0 275.33 0 275.33-26.42 279.41-26.42ZM278.61-14.21L278.61-14.21 276.85-14.28Q276.82-16.99 277.47-19.3 278.12-21.61 279.33-23.32 280.53-25.02 282.22-25.96 283.9-26.9 285.95-26.9L285.95-26.9Q287.57-26.9 288.88-26.38 290.2-25.85 291.13-24.71 292.06-23.56 292.56-21.74 293.06-19.92 293.06-17.31L293.06-17.31 293.06 0 288.74 0 288.74-17.36Q288.74-19.43 288.29-20.69 287.83-21.95 286.92-22.52 286-23.1 284.61-23.1L284.61-23.1Q283.34-23.1 282.24-22.39 281.14-21.68 280.33-20.43 279.51-19.19 279.06-17.59 278.61-15.99 278.61-14.21ZM299.89-26.42L304.19-26.42 304.19 0 299.89 0 299.89-26.42ZM299.65-33.42L299.65-33.42Q299.65-34.52 300.26-35.28 300.87-36.04 302.09-36.04L302.09-36.04Q303.31-36.04 303.93-35.28 304.55-34.52 304.55-33.42L304.55-33.42Q304.55-32.37 303.93-31.63 303.31-30.88 302.09-30.88L302.09-30.88Q300.87-30.88 300.26-31.63 299.65-32.37 299.65-33.42ZM309.26-26.42L314.2-26.42 318.64-16.8 323.16-26.42 328.16-26.42 321.01-13.38 328.36 0 323.4 0 318.74-9.91 314.05 0 309.07 0 316.42-13.38 309.26-26.42Z" opacity="1" transform="matrix(1,0,0,1,0,0)" fill="#0080ff" class="wordmark-text-0" data-fill-palette-color="primary" id="text-0"></path></svg></g></svg></g><g transform="matrix(1,0,0,1,0,57.08090079786298)"><svg viewBox="0 0 232.209792 8.249992610137376" height="8.249992610137376" width="232.209792"><g transform="matrix(1,0,0,1,0,0)"><svg width="232.209792" viewBox="0.75 -33.25 949.87 33.75" height="8.249992610137376" data-palette-color="#0023ff"><path d="M15.45 0.25L13.7 0.25 4.5-30.4 0.75-32.2 0.75-33 13.45-33 13.45-32.2 9.2-30.35 15.45-8.7 15.7-8.7 24.35-33.25 26.2-33.25 35.05-8.7 35.35-8.7 41.5-30.3 37.25-32.2 37.25-33 48.3-33 48.3-32.2 44.95-30.35 35.65 0.25 33.9 0.25 24.8-24.25 24.55-24.25 15.45 0.25ZM63.8 0L52.3 0 52.3-0.8 55.85-2.45 55.85-25.55 52.3-27.2 52.3-28 63.8-28 63.8-27.2 60.1-25.55 60.1-15.75 75.05-15.75 75.05-25.55 71.35-27.2 71.35-28 82.8-28 82.8-27.2 79.3-25.55 79.3-2.45 82.8-0.8 82.8 0 71.35 0 71.35-0.8 75.05-2.45 75.05-13.25 60.1-13.25 60.1-2.45 63.8-0.8 63.8 0ZM111.9 0L89.3 0 89.3-0.8 92.85-2.45 92.85-25.55 89.3-27.2 89.3-28 110.65-28 110.65-20.9 109.85-20.9 107.45-25.5 97.1-25.5 97.1-15.75 104.65-15.75 106.15-19.15 106.95-19.15 106.95-9.9 106.15-9.9 104.65-13.25 97.1-13.25 97.1-2.5 108.6-2.5 111.1-7.9 111.9-7.9 111.9 0ZM129.74 0L118.64 0 118.64-0.8 122.24-2.45 122.24-25.55 118.64-27.2 118.64-28 129.74-28Q134.39-28 137.07-26.1 139.74-24.2 139.74-20.9L139.74-20.9Q139.74-18.45 138.22-16.7 136.69-14.95 133.99-13.95L133.99-13.95 141.74-2.3 145.04-0.8 145.04 0 137.94 0 129.84-12.75 126.44-12.75 126.44-2.5 129.74-0.8 129.74 0ZM129.04-25.5L129.04-25.5 126.44-25.5 126.44-15.25 129.29-15.25Q131.99-15.25 133.62-16.63 135.24-18 135.24-20.4L135.24-20.4Q135.24-22.95 133.62-24.23 131.99-25.5 129.04-25.5ZM170.64 0L148.04 0 148.04-0.8 151.59-2.45 151.59-25.55 148.04-27.2 148.04-28 169.39-28 169.39-20.9 168.59-20.9 166.19-25.5 155.84-25.5 155.84-15.75 163.39-15.75 164.89-19.15 165.69-19.15 165.69-9.9 164.89-9.9 163.39-13.25 155.84-13.25 155.84-2.5 167.34-2.5 169.84-7.9 170.64-7.9 170.64 0ZM202.64 0L190.14 0 190.14-0.8 194.14-2.8 194.14-30.2 190.14-32.2 190.14-33 202.64-33 202.64-32.2 198.64-30.2 198.64-2.8 202.64-0.8 202.64 0ZM219.73 0L209.13 0 209.13-0.8 212.68-2.45 212.68-25.6 209.13-27.2 209.13-28 216.13-28 233.08-7.45 233.08-25.6 228.83-27.2 228.83-28 239.33-28 239.33-27.2 235.83-25.6 235.83 0.2 233.88 0.2 215.43-22 215.43-2.6 219.73-0.8 219.73 0ZM255.93 0L245.33 0 245.33-0.8 248.88-2.45 248.88-25.6 245.33-27.2 245.33-28 252.33-28 269.28-7.45 269.28-25.6 265.03-27.2 265.03-28 275.53-28 275.53-27.2 272.03-25.6 272.03 0.2 270.08 0.2 251.63-22 251.63-2.6 255.93-0.8 255.93 0ZM296.28 0.5L296.28 0.5Q292.18 0.5 288.95-1.38 285.73-3.25 283.88-6.53 282.03-9.8 282.03-14L282.03-14Q282.03-18.2 283.88-21.5 285.73-24.8 288.95-26.68 292.18-28.55 296.28-28.55L296.28-28.55Q300.43-28.55 303.65-26.68 306.88-24.8 308.75-21.5 310.63-18.2 310.63-14L310.63-14Q310.63-9.8 308.75-6.53 306.88-3.25 303.65-1.38 300.43 0.5 296.28 0.5ZM297.13-2L297.13-2Q301.43-2 303.88-4.95 306.33-7.9 306.33-12.75L306.33-12.75Q306.33-16.7 304.98-19.7 303.63-22.7 301.2-24.38 298.78-26.05 295.63-26.05L295.63-26.05Q291.33-26.05 288.83-23.15 286.33-20.25 286.33-15.4L286.33-15.4Q286.33-11.4 287.7-8.38 289.08-5.35 291.5-3.68 293.93-2 297.13-2ZM331.43 0.25L329.63 0.25 318.73-25.9 315.88-27.2 315.88-28 326.93-28 326.93-27.2 323.43-25.8 323.43-25.65 331.28-6.3 331.53-6.3 339.33-25.65 339.33-25.8 335.68-27.2 335.68-28 344.93-28 344.93-27.2 342.43-25.85 331.43 0.25ZM357.62 0L348.32 0 348.32-0.8 350.87-2.1 361.97-28.25 364.07-28.25 375.12-2.15 378.02-0.8 378.02 0 367.12 0 367.12-0.8 370.62-2.2 367.47-9.8 357.07-9.8 353.92-2.1 357.62-0.8 357.62 0ZM362.22-22.4L358.12-12.3 366.42-12.3 362.22-22.4ZM401.62 0L388.42 0 388.42-0.8 392.87-2.45 392.87-25.5 385.17-25.5 382.72-19.65 381.92-19.65 381.92-28 408.12-28 408.12-19.65 407.32-19.65 404.82-25.5 397.12-25.5 397.12-2.45 401.62-0.8 401.62 0ZM424.82 0L413.87 0 413.87-0.8 417.17-2.45 417.17-25.55 413.87-27.2 413.87-28 424.82-28 424.82-27.2 421.42-25.55 421.42-2.45 424.82-0.8 424.82 0ZM446.07 0.5L446.07 0.5Q441.97 0.5 438.74-1.38 435.52-3.25 433.67-6.53 431.82-9.8 431.82-14L431.82-14Q431.82-18.2 433.67-21.5 435.52-24.8 438.74-26.68 441.97-28.55 446.07-28.55L446.07-28.55Q450.22-28.55 453.44-26.68 456.67-24.8 458.54-21.5 460.42-18.2 460.42-14L460.42-14Q460.42-9.8 458.54-6.53 456.67-3.25 453.44-1.38 450.22 0.5 446.07 0.5ZM446.92-2L446.92-2Q451.22-2 453.67-4.95 456.12-7.9 456.12-12.75L456.12-12.75Q456.12-16.7 454.77-19.7 453.42-22.7 450.99-24.38 448.57-26.05 445.42-26.05L445.42-26.05Q441.12-26.05 438.62-23.15 436.12-20.25 436.12-15.4L436.12-15.4Q436.12-11.4 437.49-8.38 438.87-5.35 441.29-3.68 443.72-2 446.92-2ZM477.51 0L466.91 0 466.91-0.8 470.46-2.45 470.46-25.6 466.91-27.2 466.91-28 473.91-28 490.86-7.45 490.86-25.6 486.61-27.2 486.61-28 497.11-28 497.11-27.2 493.61-25.6 493.61 0.2 491.66 0.2 473.21-22 473.21-2.6 477.51-0.8 477.51 0ZM530.16 0L515.86 0 515.86-0.8 519.86-2.8 519.86-30.2 515.86-32.2 515.86-33 530.51-33Q536.01-33 539.91-31.05 543.81-29.1 545.83-25.7 547.86-22.3 547.86-18L547.86-18Q547.86-14.1 546.53-10.8 545.21-7.5 542.81-5.1 540.41-2.7 537.18-1.35 533.96 0 530.16 0L530.16 0ZM529.36-30.25L529.36-30.25 524.36-30.25 524.36-2.75 530.11-2.75Q534.11-2.75 537.03-4.42 539.96-6.1 541.53-9.18 543.11-12.25 543.11-16.45L543.11-16.45Q543.11-20.6 541.51-23.73 539.91-26.85 536.83-28.55 533.76-30.25 529.36-30.25ZM565.71 0L554.61 0 554.61-0.8 558.21-2.45 558.21-25.55 554.61-27.2 554.61-28 565.71-28Q570.36-28 573.03-26.1 575.71-24.2 575.71-20.9L575.71-20.9Q575.71-18.45 574.18-16.7 572.65-14.95 569.96-13.95L569.96-13.95 577.71-2.3 581-0.8 581 0 573.9 0 565.81-12.75 562.4-12.75 562.4-2.5 565.71-0.8 565.71 0ZM565-25.5L565-25.5 562.4-25.5 562.4-15.25 565.25-15.25Q567.96-15.25 569.58-16.63 571.21-18 571.21-20.4L571.21-20.4Q571.21-22.95 569.58-24.23 567.96-25.5 565-25.5ZM595.2 0L584.25 0 584.25-0.8 587.55-2.45 587.55-25.55 584.25-27.2 584.25-28 595.2-28 595.2-27.2 591.8-25.55 591.8-2.45 595.2-0.8 595.2 0ZM616 0.25L614.2 0.25 603.3-25.9 600.45-27.2 600.45-28 611.5-28 611.5-27.2 608-25.8 608-25.65 615.85-6.3 616.1-6.3 623.9-25.65 623.9-25.8 620.25-27.2 620.25-28 629.5-28 629.5-27.2 627-25.85 616 0.25ZM657.1 0L634.5 0 634.5-0.8 638.05-2.45 638.05-25.55 634.5-27.2 634.5-28 655.85-28 655.85-20.9 655.05-20.9 652.65-25.5 642.3-25.5 642.3-15.75 649.85-15.75 651.35-19.15 652.15-19.15 652.15-9.9 651.35-9.9 649.85-13.25 642.3-13.25 642.3-2.5 653.8-2.5 656.3-7.9 657.1-7.9 657.1 0ZM672.54 0.5L672.54 0.5Q669.89 0.5 667.97-0.05 666.04-0.6 664.04-1.55L664.04-1.55 663.59-8.3 664.39-8.3 666.74-3.8Q668.19-2.7 669.72-2.27 671.24-1.85 672.84-1.85L672.84-1.85Q675.69-1.85 677.22-3.03 678.74-4.2 678.74-6.6L678.74-6.6Q678.74-8.4 677.79-9.38 676.84-10.35 675.02-11.18 673.19-12 670.54-13.25L670.54-13.25Q667.39-14.75 666.02-16.3 664.64-17.85 664.64-20.6L664.64-20.6Q664.64-22.7 665.89-24.5 667.14-26.3 669.17-27.43 671.19-28.55 673.64-28.55L673.64-28.55Q675.69-28.55 677.44-28.03 679.19-27.5 680.89-26.7L680.89-26.7 681.24-20.2 680.44-20.2 678.54-24.3Q677.34-25.3 676.24-25.75 675.14-26.2 673.69-26.2L673.69-26.2Q671.19-26.2 669.77-24.95 668.34-23.7 668.34-21.65L668.34-21.65Q668.34-20.3 668.99-19.4 669.64-18.5 671.02-17.73 672.39-16.95 674.59-15.9L674.59-15.9Q677.44-14.55 679.14-13.43 680.84-12.3 681.62-10.9 682.39-9.5 682.39-7.35L682.39-7.35Q682.39-5.05 681.12-3.28 679.84-1.5 677.62-0.5 675.39 0.5 672.54 0.5ZM713.89 0L700.89 0 700.89-0.8 704.89-2.8 704.89-30.2 700.89-32.2 700.89-33 713.89-33Q719.79-33 723.36-30.85 726.94-28.7 726.94-24.05L726.94-24.05Q726.94-21.3 725.06-19.18 723.19-17.05 719.96-15.8 716.74-14.55 712.69-14.55L712.69-14.55 709.39-14.55 709.39-2.8 713.89-0.8 713.89 0ZM713.29-30.25L709.39-30.25 709.39-17.3 713.64-17.3Q717.59-17.3 719.84-19.07 722.09-20.85 722.09-23.65L722.09-23.65Q722.09-27.15 719.81-28.7 717.54-30.25 713.29-30.25L713.29-30.25ZM743.89 0L732.79 0 732.79-0.8 736.39-2.45 736.39-25.55 732.79-27.2 732.79-28 743.89-28Q748.54-28 751.21-26.1 753.89-24.2 753.89-20.9L753.89-20.9Q753.89-18.45 752.36-16.7 750.84-14.95 748.14-13.95L748.14-13.95 755.89-2.3 759.19-0.8 759.19 0 752.09 0 743.99-12.75 740.59-12.75 740.59-2.5 743.89-0.8 743.89 0ZM743.19-25.5L743.19-25.5 740.59-25.5 740.59-15.25 743.44-15.25Q746.14-15.25 747.76-16.63 749.39-18 749.39-20.4L749.39-20.4Q749.39-22.95 747.76-24.23 746.14-25.5 743.19-25.5ZM784.78 0L762.18 0 762.18-0.8 765.73-2.45 765.73-25.55 762.18-27.2 762.18-28 783.53-28 783.53-20.9 782.73-20.9 780.33-25.5 769.98-25.5 769.98-15.75 777.53-15.75 779.03-19.15 779.83-19.15 779.83-9.9 779.03-9.9 777.53-13.25 769.98-13.25 769.98-2.5 781.48-2.5 783.98-7.9 784.78-7.9 784.78 0ZM806.63 0.5L806.63 0.5Q802.33 0.5 798.98-1.3 795.63-3.1 793.71-6.23 791.78-9.35 791.78-13.3L791.78-13.3Q791.78-16.6 793.03-19.4 794.28-22.2 796.43-24.25 798.58-26.3 801.38-27.43 804.18-28.55 807.33-28.55L807.33-28.55Q810.58-28.55 812.46-27.93 814.33-27.3 816.13-26.45L816.13-26.45 816.28-19.5 815.48-19.5 812.88-24.25Q811.53-25.25 810.18-25.65 808.83-26.05 807.23-26.05L807.23-26.05Q803.98-26.05 801.46-24.5 798.93-22.95 797.48-20.28 796.03-17.6 796.03-14.3L796.03-14.3Q796.03-8.35 799.11-5.18 802.18-2 807.33-2L807.33-2Q808.98-2 810.23-2.25 811.48-2.5 812.63-3.1L812.63-3.1 815.98-8.25 816.78-8.25 816.38-1.65Q814.53-0.7 812.26-0.1 809.98 0.5 806.63 0.5ZM835.83 0L824.88 0 824.88-0.8 828.18-2.45 828.18-25.55 824.88-27.2 824.88-28 835.83-28 835.83-27.2 832.43-25.55 832.43-2.45 835.83-0.8 835.83 0ZM851.28 0.5L851.28 0.5Q848.63 0.5 846.7-0.05 844.78-0.6 842.78-1.55L842.78-1.55 842.33-8.3 843.13-8.3 845.48-3.8Q846.93-2.7 848.45-2.27 849.98-1.85 851.58-1.85L851.58-1.85Q854.43-1.85 855.95-3.03 857.48-4.2 857.48-6.6L857.48-6.6Q857.48-8.4 856.53-9.38 855.58-10.35 853.75-11.18 851.93-12 849.28-13.25L849.28-13.25Q846.13-14.75 844.75-16.3 843.38-17.85 843.38-20.6L843.38-20.6Q843.38-22.7 844.63-24.5 845.88-26.3 847.9-27.43 849.93-28.55 852.38-28.55L852.38-28.55Q854.43-28.55 856.18-28.03 857.93-27.5 859.63-26.7L859.63-26.7 859.98-20.2 859.18-20.2 857.28-24.3Q856.08-25.3 854.98-25.75 853.88-26.2 852.43-26.2L852.43-26.2Q849.93-26.2 848.5-24.95 847.08-23.7 847.08-21.65L847.08-21.65Q847.08-20.3 847.73-19.4 848.38-18.5 849.75-17.73 851.13-16.95 853.33-15.9L853.33-15.9Q856.18-14.55 857.88-13.43 859.58-12.3 860.35-10.9 861.13-9.5 861.13-7.35L861.13-7.35Q861.13-5.05 859.85-3.28 858.58-1.5 856.35-0.5 854.13 0.5 851.28 0.5ZM878.32 0L867.37 0 867.37-0.8 870.67-2.45 870.67-25.55 867.37-27.2 867.37-28 878.32-28 878.32-27.2 874.92-25.55 874.92-2.45 878.32-0.8 878.32 0ZM899.57 0.5L899.57 0.5Q895.47 0.5 892.25-1.38 889.02-3.25 887.17-6.53 885.32-9.8 885.32-14L885.32-14Q885.32-18.2 887.17-21.5 889.02-24.8 892.25-26.68 895.47-28.55 899.57-28.55L899.57-28.55Q903.72-28.55 906.95-26.68 910.17-24.8 912.05-21.5 913.92-18.2 913.92-14L913.92-14Q913.92-9.8 912.05-6.53 910.17-3.25 906.95-1.38 903.72 0.5 899.57 0.5ZM900.42-2L900.42-2Q904.72-2 907.17-4.95 909.62-7.9 909.62-12.75L909.62-12.75Q909.62-16.7 908.27-19.7 906.92-22.7 904.5-24.38 902.07-26.05 898.92-26.05L898.92-26.05Q894.62-26.05 892.12-23.15 889.62-20.25 889.62-15.4L889.62-15.4Q889.62-11.4 891-8.38 892.37-5.35 894.8-3.68 897.22-2 900.42-2ZM931.02 0L920.42 0 920.42-0.8 923.97-2.45 923.97-25.6 920.42-27.2 920.42-28 927.42-28 944.37-7.45 944.37-25.6 940.12-27.2 940.12-28 950.62-28 950.62-27.2 947.12-25.6 947.12 0.2 945.17 0.2 926.72-22 926.72-2.6 931.02-0.8 931.02 0Z" opacity="1" transform="matrix(1,0,0,1,0,0)" fill="#0023ff" class="slogan-text-1" data-fill-palette-color="secondary" id="text-1"></path></svg></g></svg></g></svg></g></svg></g><g><svg viewBox="0 0 70.76911701379566 90.2872946898565" height="90.2872946898565" width="70.76911701379566"><g><svg xmlns="http://www.w3.org/2000/svg" data-name="Layer 1" viewBox="11.589999999999998 0.9802369638141156 76.83 98.01977393146542" x="0" y="0" height="90.2872946898565" width="70.76911701379566" class="icon-icon-0" data-fill-palette-color="accent" id="icon-0"><path d="M15.62 28.41h2q-0.3 0.4-0.58 0.82a16.82 16.82 0 0 0-2.77 9.71V58.12a4 4 0 0 0 4 4h5.19a4 4 0 0 0 4-4v-3H72.58v3a4 4 0 0 0 4 4h5.19a4 4 0 0 0 4-4V38.95A16.82 16.82 0 0 0 83 29.24q-0.28-0.41-0.58-0.82h2a4.13 4.13 0 0 0 4-4c0-1.1 0-2 0-2.85a4 4 0 0 0-3.9-3.92l-1.48 0a6.76 6.76 0 0 0-4.48 2c-1.91-4.75-4.32-10.15-5.82-12.32a13.47 13.47 0 0 0-9.27-5.39A77.5 77.5 0 0 0 50 1h0a77.5 77.5 0 0 0-13.46 0.87 13.47 13.47 0 0 0-9.27 5.39c-1.51 2.17-3.91 7.56-5.82 12.32a6.76 6.76 0 0 0-4.48-2l-1.48 0a4 4 0 0 0-3.9 3.92c0 0.84 0 1.74 0 2.85A4.13 4.13 0 0 0 15.62 28.41Zm48.64 6.44l7.34-1.93a3.12 3.12 0 0 1 3.91 3v1.93A3.12 3.12 0 0 1 72.39 41H65a3.12 3.12 0 0 1-0.79-6.14ZM24.49 35.94a3.12 3.12 0 0 1 3.91-3l7.34 1.93A3.12 3.12 0 0 1 35 41H27.61a3.12 3.12 0 0 1-3.12-3.12ZM47.32 76.44a2.52 2.52 0 0 1-2.51-2.71l0.71-9.27A2.52 2.52 0 0 1 48 62.13H52a2.52 2.52 0 0 1 2.51 2.33l0.71 9.27a2.52 2.52 0 0 1-2.51 2.71Zm-0.52 7.51h6.41a3 3 0 0 1 3 2.76l0.7 9.07a3 3 0 0 1-3 3.22H46.1a3 3 0 0 1-3-3.22l0.7-9.07A3 3 0 0 1 46.79 83.95Z" fill="#0023ff" data-fill-palette-color="accent"></path></svg></g></svg></g></svg></g><defs></defs></svg><rect width="395.5199999999999" height="72.54425861208104" fill="none" stroke="none" visibility="hidden"></rect></g></svg></g></svg>